<svg width="30" height="30" viewBox="0 0 30 30" fill="none" xmlns="http://www.w3.org/2000/svg">
<path d="M12.8489 20C12.7799 20 12.7124 19.978 12.655 19.9367C12.5976 19.8954 12.5529 19.8368 12.5265 19.7682C12.5001 19.6996 12.4932 19.6241 12.5067 19.5513C12.5202 19.4785 12.5535 19.4116 12.6023 19.3591L16.6575 14.9976L12.6023 10.6361C12.5387 10.5653 12.5035 10.4705 12.5043 10.3721C12.5051 10.2737 12.5418 10.1795 12.6065 10.11C12.6713 10.0403 12.7588 10.0009 12.8503 10C12.9418 9.99918 13.03 10.037 13.0958 10.1054L17.3978 14.7324C17.4633 14.8028 17.5 14.8982 17.5 14.9977C17.5 15.0973 17.4633 15.1927 17.3978 15.2631L13.0958 19.8901C13.0634 19.925 13.0249 19.9526 12.9825 19.9715C12.9402 19.9903 12.8948 20 12.8489 20Z" fill="black"/>
</svg>
