<svg width="17" height="17" viewBox="0 0 17 17" fill="none" xmlns="http://www.w3.org/2000/svg">
<path d="M1.73168 5.49794C1.7317 5.39943 1.76093 5.30314 1.81568 5.22125C1.87043 5.13935 1.94823 5.07553 2.03925 5.03786C2.13027 5.00019 2.23042 4.99035 2.32703 5.0096C2.42364 5.02884 2.51237 5.07631 2.58201 5.14599L8.36898 10.933L14.156 5.14599C14.2499 5.05526 14.3757 5.00506 14.5063 5.0062C14.6369 5.00733 14.7618 5.05971 14.8541 5.15205C14.9465 5.2444 14.9988 5.36931 15 5.4999C15.0011 5.63049 14.9509 5.75629 14.8602 5.85023L8.72093 11.9895C8.62754 12.0829 8.50088 12.1353 8.36882 12.1353C8.23675 12.1353 8.11009 12.0829 8.0167 11.9895L1.87744 5.85023C1.8312 5.80395 1.79452 5.74903 1.76951 5.68858C1.7445 5.62814 1.73165 5.56336 1.73168 5.49794Z" fill="white"/>
</svg>
