<svg width="40" height="40" viewBox="0 0 40 40" fill="none" xmlns="http://www.w3.org/2000/svg">
<path d="M30.7339 11.2196C30.5965 11.0789 30.4111 11 30.2179 11C30.0247 11 29.8393 11.0789 29.7019 11.2196L16.0677 27.122L10.2925 22.3287C10.2177 22.2496 10.1276 22.188 10.0281 22.1478C9.92856 22.1075 9.82194 22.0897 9.71528 22.0954C9.60862 22.1011 9.50434 22.1302 9.40935 22.1809C9.31436 22.2315 9.23083 22.3024 9.16428 22.389C9.09774 22.4756 9.04969 22.5759 9.02333 22.6832C8.99697 22.7905 8.99289 22.9023 9.01137 23.0114C9.02985 23.1204 9.07046 23.2241 9.13052 23.3157C9.19058 23.4072 9.26871 23.4845 9.35974 23.5424L15.77 28.7884C15.9098 28.9243 16.0943 29 16.286 29C16.4777 29 16.6622 28.9243 16.802 28.7884L30.8133 12.3305C30.8792 12.2525 30.9294 12.1617 30.9611 12.0634C30.9928 11.9651 31.0053 11.8612 30.9979 11.7578C30.9906 11.6545 30.9634 11.5536 30.9181 11.4612C30.8727 11.3688 30.8101 11.2867 30.7339 11.2196Z" fill="white"/>
</svg>
