<svg width="30" height="30" viewBox="0 0 30 30" fill="none" xmlns="http://www.w3.org/2000/svg">
<path fill-rule="evenodd" clip-rule="evenodd" d="M9.39062 7.40625C9.0023 7.40625 8.6875 7.72105 8.6875 8.10938C8.6875 8.4977 9.0023 8.8125 9.39062 8.8125C9.77895 8.8125 10.0938 8.4977 10.0938 8.10938C10.0938 7.72105 9.77895 7.40625 9.39062 7.40625ZM7.28125 8.10938C7.28125 6.9444 8.22565 6 9.39062 6C10.5556 6 11.5 6.9444 11.5 8.10938C11.5 9.27435 10.5556 10.2188 9.39062 10.2188C8.22565 10.2188 7.28125 9.27435 7.28125 8.10938Z" fill="white"/>
<path fill-rule="evenodd" clip-rule="evenodd" d="M20.1719 13.9688C19.7835 13.9688 19.4688 14.2835 19.4688 14.6719C19.4688 15.0602 19.7835 15.375 20.1719 15.375C20.5602 15.375 20.875 15.0602 20.875 14.6719C20.875 14.2835 20.5602 13.9688 20.1719 13.9688ZM18.0625 14.6719C18.0625 13.5069 19.0069 12.5625 20.1719 12.5625C21.3369 12.5625 22.2812 13.5069 22.2812 14.6719C22.2812 15.8369 21.3369 16.7812 20.1719 16.7812C19.0069 16.7812 18.0625 15.8369 18.0625 14.6719Z" fill="white"/>
<path fill-rule="evenodd" clip-rule="evenodd" d="M14.0781 20.5312C13.6898 20.5312 13.375 20.846 13.375 21.2344C13.375 21.6227 13.6898 21.9375 14.0781 21.9375C14.4665 21.9375 14.7812 21.6227 14.7812 21.2344C14.7812 20.846 14.4665 20.5312 14.0781 20.5312ZM11.9688 21.2344C11.9688 20.0694 12.9131 19.125 14.0781 19.125C15.2431 19.125 16.1875 20.0694 16.1875 21.2344C16.1875 22.3994 15.2431 23.3438 14.0781 23.3438C12.9131 23.3438 11.9688 22.3994 11.9688 21.2344Z" fill="white"/>
<path fill-rule="evenodd" clip-rule="evenodd" d="M10.0938 8.10938C10.0938 7.72105 10.4085 7.40625 10.7969 7.40625H24.8594C25.2477 7.40625 25.5625 7.72105 25.5625 8.10938C25.5625 8.4977 25.2477 8.8125 24.8594 8.8125H10.7969C10.4085 8.8125 10.0938 8.4977 10.0938 8.10938Z" fill="white"/>
<path fill-rule="evenodd" clip-rule="evenodd" d="M4 8.10938C4 7.72105 4.3148 7.40625 4.70312 7.40625H7.98438C8.3727 7.40625 8.6875 7.72105 8.6875 8.10938C8.6875 8.4977 8.3727 8.8125 7.98438 8.8125H4.70312C4.3148 8.8125 4 8.4977 4 8.10938Z" fill="white"/>
<path fill-rule="evenodd" clip-rule="evenodd" d="M14.7812 21.2344C14.7812 20.846 15.096 20.5312 15.4844 20.5312H24.8594C25.2477 20.5312 25.5625 20.846 25.5625 21.2344C25.5625 21.6227 25.2477 21.9375 24.8594 21.9375H15.4844C15.096 21.9375 14.7812 21.6227 14.7812 21.2344Z" fill="white"/>
<path fill-rule="evenodd" clip-rule="evenodd" d="M4 21.2344C4 20.846 4.3148 20.5312 4.70312 20.5312H12.6719C13.0602 20.5312 13.375 20.846 13.375 21.2344C13.375 21.6227 13.0602 21.9375 12.6719 21.9375H4.70312C4.3148 21.9375 4 21.6227 4 21.2344Z" fill="white"/>
<path fill-rule="evenodd" clip-rule="evenodd" d="M20.875 14.6719C20.875 14.2835 21.1898 13.9688 21.5781 13.9688H24.8594C25.2477 13.9688 25.5625 14.2835 25.5625 14.6719C25.5625 15.0602 25.2477 15.375 24.8594 15.375H21.5781C21.1898 15.375 20.875 15.0602 20.875 14.6719Z" fill="white"/>
<path fill-rule="evenodd" clip-rule="evenodd" d="M4 14.6719C4 14.2835 4.3148 13.9688 4.70312 13.9688H18.7656C19.1539 13.9688 19.4688 14.2835 19.4688 14.6719C19.4688 15.0602 19.1539 15.375 18.7656 15.375H4.70312C4.3148 15.375 4 15.0602 4 14.6719Z" fill="white"/>
</svg>
