<svg width="60" height="60" viewBox="0 0 60 60" fill="none" xmlns="http://www.w3.org/2000/svg">
<path d="M53.6015 11.0002C54.0288 10.9922 54.4333 11.1904 54.6858 11.5305C55.3784 12.4089 54.812 13.8692 54.0886 14.567C53.6404 15.0022 52.8135 15.4487 51.247 16.1869C50.7227 16.4351 49.8554 17.0846 49.5172 17.3393C47.8407 18.619 46.6238 21.5056 45.2709 24.6695C45.2709 24.6695 44.6981 26.2248 42.1543 27.8994C41.7303 28.1767 42.1138 28.4104 42.5782 29.0099C43.1802 29.7868 44.3777 33.0071 44.2256 37.8939C44.1981 38.7578 44.5476 39.135 44.9457 39.8425C45.635 41.0691 46.9944 40.8015 46.9588 42.4036C46.9151 44.565 48.5106 45.0259 48.0025 46.0204C47.6287 46.7489 47.7549 47.45 47.7582 48.1559C47.7582 48.517 47.9523 49.0424 47.2063 48.9973C44.1625 48.82 44.3648 44.7471 44.4214 43.3481C44.4699 43.166 44.3292 42.8323 44.3081 42.8162C44.1625 42.7098 42.2562 41.2383 42.1332 41.1126C39.8289 38.7788 38.311 36.6835 37.4614 34.527C36.8983 33.0925 36.3206 31.6709 35.3318 30.7668C34.2315 29.7546 32.8657 29.1921 31.6747 29.1872C23.2065 29.1421 21.4637 25.4399 19.1594 23.5912C19.038 23.5058 18.8988 23.4478 18.7548 23.4172C18.6286 23.4268 18.525 23.5832 18.4457 23.6476C17.5557 24.5728 16.6576 24.8806 15.452 24.8806C12.591 24.8806 9.5083 22.3792 8.97105 22.9385C8.55517 23.3737 8.90956 24.2649 8.15385 24.4148C7.09715 24.6244 6.01133 23.6428 6 22.7547V22.729C6 22.6967 6.00162 22.6677 6.00485 22.6371C6.16991 20.9931 7.8561 20.5128 9.33515 20.35C10.5585 20.213 11.5586 20.5483 11.7884 20.5789C12.4729 20.6691 12.591 19.8471 12.4761 19.312C12.3547 18.7399 11.8094 18.619 11.2495 18.4546C10.565 18.2531 9.80443 18.8156 9.29146 18.6383C8.68948 18.4288 8.64903 18.121 8.14414 17.6826C7.51789 17.1346 6.78322 16.9895 6.78484 16.2094C6.78484 15.5002 7.65706 15.439 7.91274 14.775C8.03572 14.4526 7.9985 14.1077 8.10692 13.9111C8.40629 13.3727 8.95972 13.4001 9.40635 12.9601C10.0132 12.3638 10.3126 11.2082 10.6313 11.1582C10.9501 11.1098 11.4761 12.2671 11.79 12.1639C12.1217 12.0543 12.5878 11.0776 13.0393 11.134C13.2334 11.1582 13.9989 12.6958 13.9989 12.6958C20.2161 13.0069 27.8719 20.4951 28.8606 21.2526C29.3363 21.6185 31.3429 23.6896 35.0195 25.2965C36.5309 25.9541 38.0456 26.2329 39.4502 26.1362C41.3306 26.0024 43.4262 24.3568 44.7175 22.1278C46.3357 19.3265 47.0283 14.4542 51.6969 11.6917C52.1144 11.4451 52.8701 11.0035 53.5837 11.0002H53.6015Z" fill="white"/>
</svg>
