<svg width="32" height="32" viewBox="0 0 32 32" fill="none" xmlns="http://www.w3.org/2000/svg">
<path fill-rule="evenodd" clip-rule="evenodd" d="M15.5139 5.20136C15.7823 4.93288 16.2177 4.93288 16.4861 5.20136L18.75 7.46523V5.6875C18.75 5.3078 19.0578 5 19.4375 5H23.5625C23.9422 5 24.25 5.3078 24.25 5.6875V12.9652L26.7986 15.5139C26.9276 15.6428 27 15.8177 27 16V18.0625C27 18.4422 26.6922 18.75 26.3125 18.75H24.25V26.3125C24.25 26.6922 23.9422 27 23.5625 27H19.4375C19.0578 27 18.75 26.6922 18.75 26.3125V18.75H13.25V26.3125C13.25 26.6922 12.9422 27 12.5625 27H8.4375C8.0578 27 7.75 26.6922 7.75 26.3125V18.75H5.6875C5.3078 18.75 5 18.4422 5 18.0625V16C5 15.8177 5.07243 15.6428 5.20136 15.5139L15.5139 5.20136ZM20.125 6.375V9.125C20.125 9.40307 19.9575 9.65376 19.7006 9.76017C19.4437 9.86658 19.148 9.80776 18.9514 9.61114L16 6.65977L6.375 16.2848V17.375H8.4375C8.8172 17.375 9.125 17.6828 9.125 18.0625V25.625H11.875V18.0625C11.875 17.6828 12.1828 17.375 12.5625 17.375H19.4375C19.8172 17.375 20.125 17.6828 20.125 18.0625V25.625H22.875V18.0625C22.875 17.6828 23.1828 17.375 23.5625 17.375H25.625V16.2848L23.0764 13.7361C22.9474 13.6072 22.875 13.4323 22.875 13.25V6.375H20.125Z" fill="#222222"/>
</svg>
