<!-- Generated by IcoMoon.io -->
<svg version="1.1" xmlns="http://www.w3.org/2000/svg" width="32" height="32" viewBox="0 0 32 32">
<title>kr</title>
<path fill="#fff" d="M16 30.88c8.246 0 14.88-6.634 14.88-14.88s-6.634-14.88-14.88-14.88-14.88 6.634-14.88 14.88 6.634 14.88 14.88 14.88zM7.258 25.734l-3.41-5.146 0.868-0.62 3.41 5.146-0.868 0.62zM5.15 19.782l0.868-0.62 1.488 2.232-0.868 0.62-1.488-2.232zM8.56 24.866l-1.612-2.356 0.868-0.62 1.612 2.356-0.868 0.62zM9.8 23.998l-3.41-5.146 0.868-0.62 3.41 5.146-0.868 0.62zM21.704 23.192l1.55-2.294 0.868 0.62-1.55 2.294-0.868-0.62zM25.114 18.108l0.868 0.558-1.488 2.294-0.868-0.62 1.488-2.232zM23.626 11.598l0.868-0.558 1.612 2.356-0.868 0.62-1.612-2.418zM26.354 18.976l0.868 0.558-1.488 2.294-0.868-0.558 1.488-2.294zM23.006 24.122l1.55-2.356 0.868 0.558-1.55 2.356-0.868-0.558zM25.176 25.548l-0.868-0.62 1.488-2.294 0.868 0.62-1.488 2.294zM27.036 22.696l-0.868-0.62 1.55-2.294 0.868 0.558-1.55 2.356zM28.648 11.66l-0.868 0.62-1.55-2.356 0.93-0.558 1.488 2.294zM25.238 6.514l1.55 2.356-0.868 0.558-1.55-2.294 0.868-0.62zM23.998 7.444l3.41 5.146-0.868 0.62-3.41-5.146 0.868-0.62zM22.696 8.25l1.488 2.232-0.868 0.62-1.488-2.232 0.868-0.62zM11.846 11.846c-1.116 1.178-1.116 2.976 0 4.154 0 0 0 0 0 0-1.116-1.178-1.116-2.976 0-4.154 2.232-2.294 5.89-2.294 8.184-0.062 0 0 0.062 0.062 0.062 0.062 2.294 2.294 2.294 6.014 0 8.308 0 0 0 0 0 0 1.116-1.178 1.116-2.976 0-4.154 0 0 0 0 0 0 1.116 1.178 1.116 2.976 0 4.154-2.232 2.294-5.89 2.294-8.184 0.062 0 0-0.062-0.062-0.062-0.062-2.232-2.294-2.232-6.014 0-8.308 0 0 0 0 0 0zM10.792 8.498l-3.41 5.146-0.868-0.558 3.41-5.146 0.868 0.558zM9.428 7.692l-3.348 5.146-0.868-0.558 3.41-5.146 0.806 0.558zM7.382 6.266l0.868 0.558-3.41 5.146-0.868-0.558 3.41-5.146z"></path>
<path fill="#010101" d="M26.788 8.87l-1.55-2.356-0.868 0.62 1.55 2.294z"></path>
<path fill="#010101" d="M27.408 12.59l-3.41-5.146-0.868 0.558 3.41 5.146z"></path>
<path fill="#010101" d="M24.494 20.96l1.488-2.294-0.868-0.558-1.488 2.294z"></path>
<path fill="#010101" d="M26.168 13.396l-1.612-2.356-0.93 0.558 1.674 2.418z"></path>
<path fill="#010101" d="M25.734 21.828l1.55-2.294-0.93-0.558-1.488 2.294z"></path>
<path fill="#010101" d="M24.246 10.482l-1.55-2.232-0.868 0.62 1.488 2.232z"></path>
<path fill="#010101" d="M7.382 13.644l3.41-5.146-0.868-0.558-3.41 5.146z"></path>
<path fill="#010101" d="M6.080 12.838l3.348-5.146-0.868-0.558-3.348 5.146z"></path>
<path fill="#010101" d="M6.018 19.162l-0.868 0.62 1.488 2.232 0.868-0.62z"></path>
<path fill="#010101" d="M8.25 6.824l-0.868-0.558-3.41 5.146 0.868 0.558z"></path>
<path fill="#010101" d="M3.848 20.588l3.41 5.146 0.868-0.558-3.41-5.146z"></path>
<path fill="#010101" d="M7.010 22.51l1.55 2.356 0.93-0.558-1.674-2.356z"></path>
<path fill="#010101" d="M6.39 18.852l3.41 5.146 0.868-0.62-3.41-5.084z"></path>
<path fill="#010101" d="M23.254 20.898l-1.55 2.294 0.868 0.62 1.55-2.294z"></path>
<path fill="#010101" d="M24.556 21.766l-1.55 2.356 0.868 0.558 1.55-2.356z"></path>
<path fill="#010101" d="M24.246 24.928l0.93 0.62 1.488-2.356-0.868-0.558z"></path>
<path fill="#010101" d="M26.168 22.076l0.868 0.62 1.488-2.356-0.806-0.558z"></path>
<path fill="#010101" d="M27.78 12.28l0.868-0.62-1.488-2.294-0.93 0.558z"></path>
<path fill="#223b74" d="M11.846 20.154c0 0 0.062 0.062 0.062 0.062 2.294 2.232 5.952 2.17 8.184-0.062 1.116-1.178 1.116-2.976 0-4.154-1.116-1.116-2.976-1.116-4.092 0s-2.976 1.116-4.092 0c0 0 0 0 0 0s0 0 0 0c-1.116-1.178-1.116-2.976 0-4.154 0 0 0 0 0 0-2.294 2.294-2.294 6.014-0.062 8.308z"></path>
<path fill="#c62032" d="M16 16c1.116-1.116 2.976-1.116 4.092 0 0 0 0 0 0 0 1.116 1.178 1.116 2.976 0 4.154 0 0 0 0 0 0 2.294-2.294 2.294-6.014 0-8.308 0 0-0.062-0.062-0.062-0.062-2.294-2.232-5.952-2.17-8.184 0.062-1.116 1.178-1.116 2.976 0 4.154 0 0 0 0 0 0 1.178 1.116 3.038 1.116 4.154 0z"></path>
<path fill="#cccccb" d="M31.5 16c0-8.556-6.944-15.5-15.5-15.5s-15.5 6.944-15.5 15.5 6.944 15.5 15.5 15.5 15.5-6.944 15.5-15.5zM16 1.12c8.246 0 14.88 6.634 14.88 14.88s-6.634 14.88-14.88 14.88-14.88-6.634-14.88-14.88 6.634-14.88 14.88-14.88z"></path>
</svg>
