<svg width="30" height="30" viewBox="0 0 30 30" fill="none" xmlns="http://www.w3.org/2000/svg">
<path d="M14.9601 27C14.5908 27.0009 14.2249 26.928 13.8836 26.7855C13.5423 26.6429 13.2322 26.4336 12.9712 26.1695L3.35375 16.4488C2.59401 15.6726 1.99469 14.7513 1.59072 13.7386C1.18674 12.726 0.986188 11.6422 1.00074 10.5504C1.00806 9.54987 1.2106 8.56063 1.59677 7.63935C1.98294 6.71806 2.54514 5.88283 3.25118 5.18149C3.95721 4.48015 4.7932 3.92649 5.71127 3.55222C6.62934 3.17795 7.61145 2.99043 8.60133 3.00039C9.60894 2.99013 10.6083 3.18449 11.5402 3.57194C12.4721 3.9594 13.3175 4.53206 14.0263 5.25595L14.9601 6.1997L15.7257 5.42583C17.0478 4.05415 18.8169 3.21321 20.7054 3.05878C22.5939 2.90435 24.4737 3.44688 25.9968 4.58589C26.8638 5.26072 27.5786 6.1145 28.0936 7.09038C28.6086 8.06626 28.912 9.14184 28.9835 10.2455C29.0551 11.3491 28.8932 12.4555 28.5086 13.491C28.124 14.5265 27.5256 15.4672 26.7531 16.2507L16.9489 26.1695C16.6879 26.4336 16.3779 26.6429 16.0365 26.7855C15.6952 26.928 15.3294 27.0009 14.9601 27ZM8.56398 4.87845C7.07983 4.87692 5.65331 5.45907 4.58628 6.5017C4.04228 7.03072 3.60967 7.6654 3.31443 8.36763C3.0192 9.06986 2.86741 9.82515 2.86821 10.5881C2.86002 11.4274 3.01675 12.26 3.3293 13.0376C3.64185 13.8153 4.10401 14.5224 4.68899 15.1182L14.3064 24.8388C14.3933 24.9273 14.4965 24.9975 14.6103 25.0454C14.7241 25.0933 14.8461 25.118 14.9694 25.118C15.0927 25.118 15.2147 25.0933 15.3285 25.0454C15.4423 24.9975 15.5455 24.9273 15.6323 24.8388L25.4459 14.9105C26.0219 14.316 26.467 13.605 26.7518 12.8243C27.0367 12.0435 27.1549 11.2107 27.0986 10.3805C27.0487 9.54183 26.8202 8.72392 26.4286 7.98278C26.0369 7.24165 25.4915 6.59478 24.8296 6.08645C23.6682 5.22093 22.235 4.81169 20.7972 4.93496C19.3594 5.05824 18.0149 5.70563 17.0143 6.75652L15.623 8.20046C15.5362 8.28891 15.4329 8.35912 15.3192 8.40704C15.2054 8.45495 15.0833 8.47962 14.9601 8.47962C14.8368 8.47962 14.7148 8.45495 14.601 8.40704C14.4872 8.35912 14.3839 8.28891 14.2971 8.20046L12.7098 6.59608C11.6165 5.50065 10.1408 4.88371 8.60133 4.87845H8.56398Z" fill="black"/>
</svg>
