<svg width="49" height="38" viewBox="0 0 49 38" fill="none" xmlns="http://www.w3.org/2000/svg">
<path d="M47.6015 0.00023658C48.0288 -0.00782218 48.4333 0.190422 48.6858 0.530502C49.3784 1.40891 48.812 2.86915 48.0886 3.56704C47.6404 4.00221 46.8135 4.44867 45.247 5.18685C44.7227 5.43506 43.8554 6.0846 43.5172 6.33925C41.8407 7.61899 40.6238 10.5056 39.2709 13.6695C39.2709 13.6695 38.6981 15.2248 36.1543 16.8994C35.7303 17.1767 36.1138 17.4104 36.5782 18.0099C37.1802 18.7868 38.3777 22.0071 38.2256 26.8939C38.1981 27.7578 38.5476 28.135 38.9457 28.8425C39.635 30.0691 40.9944 29.8015 40.9588 31.4036C40.9151 33.565 42.5106 34.0259 42.0025 35.0204C41.6287 35.7489 41.7549 36.45 41.7582 37.1559C41.7582 37.517 41.9523 38.0424 41.2063 37.9973C38.1625 37.82 38.3648 33.7471 38.4214 32.3481C38.4699 32.166 38.3292 31.8323 38.3081 31.8162C38.1625 31.7098 36.2562 30.2383 36.1332 30.1126C33.8289 27.7788 32.311 25.6835 31.4614 23.527C30.8983 22.0925 30.3206 20.6709 29.3318 19.7668C28.2315 18.7546 26.8657 18.1921 25.6747 18.1872C17.2065 18.1421 15.4637 14.4399 13.1594 12.5912C13.038 12.5058 12.8988 12.4478 12.7548 12.4172C12.6286 12.4268 12.525 12.5832 12.4457 12.6476C11.5557 13.5728 10.6576 13.8806 9.45202 13.8806C6.59101 13.8806 3.5083 11.3792 2.97105 11.9385C2.55517 12.3737 2.90956 13.2649 2.15385 13.4148C1.09715 13.6244 0.0113275 12.6428 0 11.7547V11.729C0 11.6967 0.0016171 11.6677 0.00485354 11.6371C0.169912 9.9931 1.8561 9.51279 3.33515 9.35001C4.55852 9.21301 5.55858 9.54825 5.78837 9.57888C6.47288 9.66913 6.59101 8.84714 6.47611 8.31204C6.35475 7.73987 5.80941 7.61898 5.24951 7.45459C4.565 7.25312 3.80443 7.81562 3.29146 7.63833C2.68948 7.4288 2.64903 7.12095 2.14414 6.68256C1.51789 6.13456 0.783218 5.9895 0.784836 5.20942C0.784836 4.50025 1.65706 4.439 1.91274 3.77496C2.03572 3.45261 1.9985 3.10769 2.10692 2.91106C2.40629 2.37273 2.95972 2.40013 3.40635 1.96013C4.01319 1.36378 4.31256 0.208152 4.63135 0.158188C4.95013 0.109835 5.47606 1.26707 5.78999 1.16392C6.12172 1.05432 6.58777 0.0775994 7.03925 0.134011C7.23344 0.158187 7.99886 1.6958 7.99886 1.6958C14.2161 2.00687 21.8719 9.49506 22.8606 10.2526C23.3363 10.6185 25.3429 12.6896 29.0195 14.2965C30.5309 14.9541 32.0456 15.2329 33.4502 15.1362C35.3306 15.0024 37.4262 13.3568 38.7175 11.1278C40.3357 8.32655 41.0283 3.45422 45.6969 0.691678C46.1144 0.44508 46.8701 0.00346008 47.5837 0.00023658H47.6015Z" fill="#010101"/>
</svg>
