<svg width="30" height="30" viewBox="0 0 30 30" fill="none" xmlns="http://www.w3.org/2000/svg">
<path d="M24.7074 4.5H15.5927C15.3829 4.50088 15.1819 4.58497 15.034 4.73381L4.73048 15.0374C4.58286 15.1858 4.5 15.3868 4.5 15.5961C4.5 15.8055 4.58286 16.0063 4.73048 16.1549L13.8451 25.2695C13.9937 25.4171 14.1945 25.5 14.4039 25.5C14.6132 25.5 14.8142 25.4171 14.9626 25.2695L25.2662 14.966C25.415 14.8181 25.4991 14.6171 25.5 14.4073V5.29258C25.5 5.08237 25.4165 4.88078 25.2679 4.73214C25.1192 4.5835 24.9176 4.5 24.7074 4.5ZM23.9149 14.0783L14.4039 23.5893L6.41075 15.5961L15.9217 6.08516H23.9149V14.0783Z" fill="white"/>
<path d="M21 10.5C21.8284 10.5 22.5 9.82843 22.5 9C22.5 8.17157 21.8284 7.5 21 7.5C20.1716 7.5 19.5 8.17157 19.5 9C19.5 9.82843 20.1716 10.5 21 10.5Z" fill="white"/>
</svg>
