<svg width="60" height="60" viewBox="0 0 60 60" fill="none" xmlns="http://www.w3.org/2000/svg">
<path fill-rule="evenodd" clip-rule="evenodd" d="M34.7764 34.7774C35.1969 34.3568 35.8788 34.3568 36.2994 34.7774L43.6837 42.1617C44.1043 42.5822 44.1043 43.2641 43.6837 43.6847C43.2632 44.1052 42.5813 44.1052 42.1607 43.6847L34.7764 36.3004C34.3558 35.8798 34.3558 35.198 34.7764 34.7774Z" fill="black"/>
<path fill-rule="evenodd" clip-rule="evenodd" d="M27.65 18.1538C22.4054 18.1538 18.1538 22.4054 18.1538 27.65C18.1538 32.8946 22.4054 37.1462 27.65 37.1462C32.8946 37.1462 37.1462 32.8946 37.1462 27.65C37.1462 22.4054 32.8946 18.1538 27.65 18.1538ZM16 27.65C16 21.2159 21.2159 16 27.65 16C34.0841 16 39.3 21.2159 39.3 27.65C39.3 34.0841 34.0841 39.3 27.65 39.3C21.2159 39.3 16 34.0841 16 27.65Z" fill="black"/>
</svg>
