<svg width="30" height="30" viewBox="0 0 30 30" fill="none" xmlns="http://www.w3.org/2000/svg">
<path d="M21.7268 25.5H8.27317C8.06812 25.5 7.87148 25.4196 7.7265 25.2764C7.58145 25.1333 7.5 24.9392 7.5 24.7367V9.26331C7.5 9.06082 7.58145 8.86673 7.7265 8.72355C7.87148 8.58045 8.06812 8.5 8.27317 8.5H21.7268C21.9319 8.5 22.1285 8.58045 22.2735 8.72355C22.4186 8.86673 22.5 9.06082 22.5 9.26331V24.7367C22.5 24.9392 22.4186 25.1333 22.2735 25.2764C22.1285 25.4196 21.9319 25.5 21.7268 25.5ZM9.04642 23.9735H20.9536V10.0265H9.04642V23.9735Z" fill="#BA2026"/>
<path d="M17.7857 12.5C17.5963 12.5 17.4146 12.4157 17.2807 12.2658C17.1467 12.1157 17.0714 11.9123 17.0714 11.7003V8.35482C17.0598 7.7483 16.8365 7.17097 16.4493 6.74664C16.062 6.3223 15.5418 6.08463 15 6.08463C14.4582 6.08463 13.938 6.3223 13.5507 6.74664C13.1635 7.17097 12.9402 7.7483 12.9286 8.35482V11.7003C12.9286 11.9123 12.8533 12.1157 12.7193 12.2658C12.5854 12.4157 12.4037 12.5 12.2143 12.5C12.0249 12.5 11.8431 12.4157 11.7092 12.2658C11.5753 12.1157 11.5 11.9123 11.5 11.7003V8.35482C11.5151 7.32663 11.8905 6.34633 12.5453 5.62523C13.2 4.90414 14.0816 4.5 15 4.5C15.9184 4.5 16.8 4.90414 17.4547 5.62523C18.1095 6.34633 18.4849 7.32663 18.5 8.35482V11.7003C18.5 11.9123 18.4247 12.1157 18.2908 12.2658C18.1569 12.4157 17.9751 12.5 17.7857 12.5Z" fill="#BA2026"/>
</svg>
