<svg width="60" height="60" viewBox="0 0 60 60" fill="none" xmlns="http://www.w3.org/2000/svg">
<path d="M38.9691 44H21.0309C20.7575 44 20.4953 43.8919 20.302 43.6996C20.1086 43.5072 20 43.2464 20 42.9743V23.5257C20 23.2536 20.1086 22.9928 20.302 22.8004C20.4953 22.6081 20.7575 22.5 21.0309 22.5H38.9691C39.2425 22.5 39.5047 22.6081 39.698 22.8004C39.8914 22.9928 40 23.2536 40 23.5257V42.9743C40 43.2464 39.8914 43.5072 39.698 43.6996C39.5047 43.8919 39.2425 44 38.9691 44ZM22.0619 41.9487H37.9381V24.5513H22.0619V41.9487Z" fill="black"/>
<path d="M33.9796 27.5C33.709 27.5 33.4494 27.3923 33.2581 27.2007C33.0667 27.009 32.9592 26.7491 32.9592 26.4781V20.9256C32.9426 20.1506 32.6235 19.4129 32.0704 18.8707C31.5172 18.3285 30.774 18.0248 30 18.0248C29.226 18.0248 28.4828 18.3285 27.9296 18.8707C27.3765 19.4129 27.0574 20.1506 27.0408 20.9256V26.4781C27.0408 26.7491 26.9333 27.009 26.7419 27.2007C26.5506 27.3923 26.291 27.5 26.0204 27.5C25.7498 27.5 25.4902 27.3923 25.2989 27.2007C25.1075 27.009 25 26.7491 25 26.4781V20.9256C25.0216 19.6118 25.5579 18.3592 26.4933 17.4378C27.4286 16.5164 28.688 16 30 16C31.312 16 32.5714 16.5164 33.5067 17.4378C34.4421 18.3592 34.9784 19.6118 35 20.9256V26.4781C35 26.7491 34.8925 27.009 34.7011 27.2007C34.5098 27.3923 34.2502 27.5 33.9796 27.5Z" fill="black"/>
</svg>
