<svg width="17" height="17" viewBox="0 0 17 17" fill="none" xmlns="http://www.w3.org/2000/svg">
<path d="M15 11.6378C15 11.7363 14.9707 11.8326 14.916 11.9145C14.8612 11.9964 14.7834 12.0602 14.6924 12.0979C14.6014 12.1356 14.5013 12.1454 14.4046 12.1261C14.308 12.1069 14.2193 12.0594 14.1497 11.9898L8.3627 6.20274L2.57572 11.9898C2.48182 12.0805 2.35602 12.1307 2.22542 12.1295C2.09482 12.1284 1.96992 12.076 1.87762 11.9837C1.78522 11.8913 1.73292 11.7664 1.73172 11.6358C1.73062 11.5053 1.78082 11.3795 1.87152 11.2855L8.01075 5.14624C8.10414 5.05284 8.2308 5.00044 8.36286 5.00044C8.49493 5.00044 8.62159 5.05284 8.71498 5.14624L14.8542 11.2855C14.9005 11.3318 14.9372 11.3867 14.9622 11.4472C14.9872 11.5076 15 11.5724 15 11.6378Z" fill="black"/>
</svg>
