<svg width="17" height="17" viewBox="0 0 17 17" fill="none" xmlns="http://www.w3.org/2000/svg">
<path d="M1.73047 5.49794C1.73049 5.39943 1.75972 5.30314 1.81447 5.22125C1.86922 5.13935 1.94702 5.07553 2.03804 5.03786C2.12906 5.00019 2.22921 4.99035 2.32582 5.0096C2.42243 5.02884 2.51116 5.07631 2.5808 5.14599L8.36777 10.933L14.1547 5.14599C14.2486 5.05526 14.3744 5.00506 14.505 5.0062C14.6356 5.00733 14.7605 5.05971 14.8528 5.15205C14.9452 5.2444 14.9975 5.36931 14.9987 5.4999C14.9998 5.63049 14.9496 5.75629 14.8589 5.85023L8.71972 11.9895C8.62633 12.0829 8.49967 12.1353 8.36761 12.1353C8.23554 12.1353 8.10888 12.0829 8.01549 11.9895L1.87623 5.85023C1.82999 5.80395 1.79331 5.74903 1.7683 5.68858C1.74329 5.62814 1.73044 5.56336 1.73047 5.49794Z" fill="black"/>
</svg>
