<svg width="20" height="20" viewBox="0 0 20 20" fill="none" xmlns="http://www.w3.org/2000/svg">
<g clip-path="url(#clip0_142_48)">
<path d="M10.1126 1.07701L12.7204 5.9218C12.9177 6.28836 13.264 6.55764 13.678 6.64513L18.8841 7.74511C18.9254 7.75379 18.9681 7.78394 18.9899 7.85413C19.0119 7.92504 18.9972 7.99364 18.9534 8.04359L15.359 12.1378C15.0839 12.4511 14.9574 12.8673 15.0027 13.2781L15.6125 18.8027C15.6215 18.8849 15.5881 18.9423 15.5463 18.9741C15.525 18.9903 15.5045 18.9974 15.4887 18.9993C15.4753 19.001 15.4573 19.0003 15.4312 18.9878L10.602 16.6734C10.2205 16.4905 9.7795 16.4905 9.39797 16.6734L4.56872 18.9878C4.5427 19.0003 4.52466 19.001 4.5113 18.9993C4.49551 18.9974 4.47504 18.9903 4.45372 18.9741C4.4119 18.9423 4.37843 18.8849 4.38751 18.8027L4.99726 13.2781C5.0426 12.8673 4.91607 12.4511 4.64103 12.1378L1.04662 8.04359C1.00277 7.99364 0.988114 7.92504 1.01012 7.85413C1.0319 7.78394 1.07459 7.75379 1.11581 7.74511L6.32194 6.64513C6.73603 6.55764 7.08233 6.28836 7.27961 5.9218L9.88743 1.07701C9.90653 1.04154 9.9271 1.0245 9.94259 1.0154C9.95969 1.00536 9.97942 1 10 1C10.0206 1 10.0403 1.00536 10.0574 1.0154C10.0729 1.0245 10.0935 1.04154 10.1126 1.07701Z" fill="#AE946D" stroke="#AE946D" stroke-width="2"/>
</g>
<defs>
<clipPath id="clip0_142_48">
<rect width="20" height="20" fill="white"/>
</clipPath>
</defs>
</svg>
