<svg width="60" height="60" viewBox="0 0 60 60" fill="none" xmlns="http://www.w3.org/2000/svg">
<g clip-path="url(#clip0_148_75)">
<mask id="mask0_148_75" style="mask-type:luminance" maskUnits="userSpaceOnUse" x="0" y="0" width="60" height="60">
<path d="M60 0H0V60H60V0Z" fill="white"/>
</mask>
<g mask="url(#mask0_148_75)">
<path fill-rule="evenodd" clip-rule="evenodd" d="M30 18.1538C23.4576 18.1538 18.1538 23.4576 18.1538 30C18.1538 36.5425 23.4576 41.8462 30 41.8462C36.5425 41.8462 41.8462 36.5425 41.8462 30C41.8462 23.4576 36.5425 18.1538 30 18.1538ZM16 30C16 22.268 22.268 16 30 16C37.732 16 44 22.268 44 30C44 37.732 37.732 44 30 44C22.268 44 16 37.732 16 30Z" fill="#BA2026"/>
<path fill-rule="evenodd" clip-rule="evenodd" d="M30.0006 24.6148C27.6215 24.6148 25.6929 26.5434 25.6929 28.9225C25.6929 31.3015 27.6215 33.2302 30.0006 33.2302C32.3797 33.2302 34.3083 31.3015 34.3083 28.9225C34.3083 26.5434 32.3797 24.6148 30.0006 24.6148ZM23.5391 28.9225C23.5391 25.3539 26.432 22.4609 30.0006 22.4609C33.5692 22.4609 36.4621 25.3539 36.4621 28.9225C36.4621 32.4911 33.5692 35.384 30.0006 35.384C26.432 35.384 23.5391 32.4911 23.5391 28.9225Z" fill="#BA2026"/>
<path fill-rule="evenodd" clip-rule="evenodd" d="M30.0007 35.3843C28.4097 35.3843 26.8498 35.8249 25.4938 36.6572C24.1379 37.4895 23.0389 38.6809 22.3187 40.0996C22.0494 40.6299 21.4012 40.8416 20.8709 40.5723C20.3406 40.3031 20.1289 39.6549 20.3981 39.1246C21.2984 37.3513 22.6722 35.8619 24.3671 34.8215C26.0621 33.7812 28.012 33.2305 30.0007 33.2305C31.9895 33.2305 33.9394 33.7812 35.6343 34.8215C37.3292 35.8619 38.703 37.3513 39.6033 39.1246C39.8725 39.6549 39.6609 40.3031 39.1305 40.5723C38.6002 40.8416 37.952 40.6299 37.6828 40.0996C36.9625 38.6809 35.8635 37.4895 34.5076 36.6572C33.1516 35.8249 31.5917 35.3843 30.0007 35.3843Z" fill="#BA2026"/>
</g>
</g>
<defs>
<clipPath id="clip0_148_75">
<rect width="60" height="60" fill="white"/>
</clipPath>
</defs>
</svg>
